<svg viewBox="-0.5 -0.5 20 20" fill="#ffffff" xmlns="http://www.w3.org/2000/svg" id="Movie-2-Line--Streamline-Remix.svg" height="20" width="20"><desc>Movie 2 Line Streamline Icon: https://streamlinehq.com</desc><path d="M9.5 15.833333333333336h6.333333333333334v1.5833333333333335h-6.333333333333334C5.1277437500000005 17.416666666666668 1.5833333333333335 13.872216666666668 1.5833333333333335 9.5 1.5833333333333335 5.1277437500000005 5.1277437500000005 1.5833333333333335 9.5 1.5833333333333335c4.3722166666666675 0 7.916666666666668 3.544410416666667 7.916666666666668 7.916666666666668 0 1.7822 -0.5889208333333333 3.4268875000000008 -1.5827791666666668 4.75h-2.1447041666666666C15.004062500000002 13.089495833333334 15.833333333333336 11.391608333333334 15.833333333333336 9.5c0 -3.4978050000000005 -2.8355125000000005 -6.333333333333334 -6.333333333333334 -6.333333333333334 -3.4978050000000005 0 -6.333333333333334 2.8355283333333334 -6.333333333333334 6.333333333333334 0 3.497820833333334 2.8355283333333334 6.333333333333334 6.333333333333334 6.333333333333334Zm0 -7.916666666666668c-0.8744750000000001 0 -1.5833333333333335 -0.7088820833333334 -1.5833333333333335 -1.5833333333333335s0.7088583333333334 -1.5833333333333335 1.5833333333333335 -1.5833333333333335 1.5833333333333335 0.7088820833333334 1.5833333333333335 1.5833333333333335 -0.7088583333333334 1.5833333333333335 -1.5833333333333335 1.5833333333333335Zm-3.166666666666667 3.166666666666667c-0.8744512500000001 0 -1.5833333333333335 -0.7088583333333334 -1.5833333333333335 -1.5833333333333335s0.7088820833333334 -1.5833333333333335 1.5833333333333335 -1.5833333333333335 1.5833333333333335 0.7088583333333334 1.5833333333333335 1.5833333333333335 -0.7088820833333334 1.5833333333333335 -1.5833333333333335 1.5833333333333335Zm6.333333333333334 0c-0.8744750000000001 0 -1.5833333333333335 -0.7088583333333334 -1.5833333333333335 -1.5833333333333335s0.7088583333333334 -1.5833333333333335 1.5833333333333335 -1.5833333333333335 1.5833333333333335 0.7088583333333334 1.5833333333333335 1.5833333333333335 -0.7088583333333334 1.5833333333333335 -1.5833333333333335 1.5833333333333335Zm-3.166666666666667 3.166666666666667c-0.8744750000000001 0 -1.5833333333333335 -0.7088583333333334 -1.5833333333333335 -1.5833333333333335s0.7088583333333334 -1.5833333333333335 1.5833333333333335 -1.5833333333333335 1.5833333333333335 0.7088583333333334 1.5833333333333335 1.5833333333333335 -0.7088583333333334 1.5833333333333335 -1.5833333333333335 1.5833333333333335Z" stroke-width="1"></path></svg>